<?xml version="1.0" encoding="UTF-8"?>
<svg width="337px" height="337px" viewBox="0 0 337 337" version="1.1" xmlns="http://www.w3.org/2000/svg" xmlns:xlink="http://www.w3.org/1999/xlink">
    <!-- Generator: Sketch 61.2 (89653) - https://sketch.com -->
    <title>Shape</title>
    <desc>Created with Sketch.</desc>
    <g id="Page-1" stroke="none" stroke-width="1" fill="none" fill-rule="evenodd">
        <g id="HomePage" transform="translate(-873.000000, -1667.000000)" fill="#DBDBDB" fill-rule="nonzero">
            <g id="introduction2" transform="translate(-93.000000, 1487.000000)">
                <g id="clock" transform="translate(966.000000, 180.000000)">
                    <path d="M169.235845,336.996599 C92.2473365,337.329716 24.8253902,285.433687 5.44287911,210.921856 C-13.939632,136.410026 19.6479077,58.2370677 87.0394961,21.0106877 C154.431085,-16.2156923 238.483329,-3.0256705 291.233636,53.0541528 C343.983943,109.133976 352.013439,193.837748 310.740266,258.831097 C308.067663,263.052446 303.346085,265.527271 298.354104,265.323329 C293.362124,265.119388 288.858142,262.267663 286.538764,257.842373 C284.219387,253.417083 284.436983,248.090534 287.109587,243.869185 C325.26246,183.228459 311.410276,103.560152 255.027966,59.3576085 C198.645656,15.1550653 117.976289,20.7204681 68.1979402,72.2470658 C18.419591,123.773663 15.6385491,204.589502 61.757055,259.416321 C107.875561,314.24314 187.971504,325.341165 247.259034,285.119316 C253.861689,280.756018 262.751238,282.571547 267.114397,289.174413 C271.477555,295.777279 269.662084,304.667111 263.059428,309.030408 C235.26026,327.472345 202.594982,337.208952 169.235845,336.996599 Z M220.971651,220.936909 C226.393055,215.482978 226.393055,206.674675 220.971651,201.220745 L183.218495,163.466387 L183.218495,85.3008853 C183.218495,77.578235 176.958249,71.3177899 169.235845,71.3177899 C161.51344,71.3177899 155.253194,77.578235 155.253194,85.3008853 L155.253194,174.932526 L201.256114,220.936909 C206.709871,226.358485 215.517894,226.358485 220.971651,220.936909 L220.971651,220.936909 Z" id="Shape"></path>
                </g>
            </g>
        </g>
    </g>
</svg>