<?xml version="1.0" encoding="UTF-8"?>
<svg width="31px" height="30px" viewBox="0 0 31 30" version="1.1" xmlns="http://www.w3.org/2000/svg" xmlns:xlink="http://www.w3.org/1999/xlink">
    <g id="Symbols" stroke="none" stroke-width="1" fill-rule="evenodd">
        <g id="header" transform="translate(-969.000000, -17.000000)"  fill-rule="nonzero">
            <g id="search-button" transform="translate(969.000000, 17.000000)">
                <path d="M11.7230557,23.4749403 C8.60857188,23.4938622 5.61606902,22.2652709 3.41352352,20.0631881 C1.21097802,17.8611052 -0.0182418584,14.8688605 0.000246218215,11.7543727 C-0.0195637434,8.63903405 1.20907247,5.64551613 3.41176277,3.44236318 C5.61445308,1.23921023 8.6077129,0.00994535311 11.7230557,0.0288804755 C14.8379689,0.0099521186 17.8308502,1.23888021 20.0334681,3.4414981 C22.2360859,5.64411599 23.465014,8.63699726 23.4460856,11.7519105 C23.4650074,14.8663943 22.2364161,17.8588971 20.0343332,20.0614426 C17.8322503,22.2639881 14.8400056,23.493208 11.7255179,23.4749403 L11.7230557,23.4749403 Z M11.7230557,3.37777166 C9.49586863,3.35650186 7.35374401,4.23202295 5.77904473,5.80718538 C4.20434544,7.38234781 3.32945434,9.5247298 3.3513791,11.7519105 C3.3513791,16.4425116 7.03491679,20.1260493 11.7230557,20.1260493 C16.4136568,20.1260493 20.0971945,16.4425116 20.0971945,11.7543727 C20.0971945,7.06377161 16.4136568,3.37777166 11.7255179,3.37777166 L11.7230557,3.37777166 Z M27.4568831,29.0788187 L22.470811,24.1099824 C22.1531424,23.8078602 21.9733113,23.3886551 21.9733113,22.950259 C21.9733113,22.5118629 22.1531424,22.0926578 22.470811,21.7905356 C23.1356206,21.125726 24.132835,21.125726 24.7976446,21.7905356 L29.7837167,26.7618341 C30.1013853,27.0639563 30.2812165,27.4831614 30.2812165,27.9215575 C30.2812165,28.3599536 30.1013853,28.7791587 29.7837167,29.081281 C29.4799446,29.3987094 29.0596611,29.5782329 28.6202999,29.5782329 C28.1809387,29.5782329 27.7606552,29.3987094 27.4568831,29.081281 L27.4568831,29.0788187 Z" id="Shape"></path>
            </g>
        </g>
    </g>
</svg>